<svg width="30" height="16" viewBox="0 0 30 16" fill="none" xmlns="http://www.w3.org/2000/svg">
<path d="M8.61905 15.3178C8.81866 15.117 8.9307 14.8454 8.9307 14.5622C8.9307 14.2791 8.81866 14.0075 8.61905 13.8067L3.68911 8.88744H28.9283C29.2125 8.88744 29.4851 8.77452 29.6861 8.57354C29.8871 8.37255 30 8.09995 30 7.81571C30 7.53147 29.8871 7.25887 29.6861 7.05789C29.4851 6.8569 29.2125 6.74398 28.9283 6.74398H3.72126L8.61905 1.84619C8.82228 1.64438 8.93702 1.3701 8.93803 1.0837C8.93903 0.797289 8.82622 0.522213 8.62441 0.318982C8.4226 0.115751 8.14832 0.0010116 7.86192 6.65701e-06C7.57551 -0.000998286 7.30043 0.111813 7.0972 0.313623L0.281018 7.14052C0.101043 7.32129 0 7.56599 0 7.82107C0 8.07615 0.101043 8.32085 0.281018 8.50162L7.0972 15.3178C7.19683 15.4183 7.31537 15.498 7.44597 15.5524C7.57657 15.6068 7.71665 15.6348 7.85813 15.6348C7.99961 15.6348 8.13969 15.6068 8.27029 15.5524C8.40089 15.498 8.51942 15.4183 8.61905 15.3178Z" fill="black"/>
</svg>
