<svg width="45" height="55" viewBox="0 0 45 55" fill="none" xmlns="http://www.w3.org/2000/svg">
<path d="M39.5445 45.9096L30.6112 50.9296C29.7148 51.4361 28.6794 51.6398 27.6619 51.5098C26.6444 51.3798 25.7002 50.9232 24.9722 50.2091C21.2045 46.4945 17.9546 42.2936 15.308 37.7169L10.2009 28.9189C7.23643 23.8138 5.07968 18.2802 3.80571 12.5106C3.57767 11.5159 3.68259 10.4716 4.10457 9.53583C4.52655 8.60008 5.24257 7.82397 6.14408 7.32516L15.0498 2.32061C16.145 1.70517 17.4373 1.54548 18.6423 1.87666C19.8474 2.20785 20.8666 3.00278 21.4756 4.08657L24.9661 10.298C25.4458 11.1439 25.6477 12.1196 25.544 13.0899C25.4402 14.0602 25.0359 14.9771 24.3871 15.7135L22.2617 18.055C21.574 18.7826 21.1342 19.7064 21.0054 20.6934C20.8766 21.6804 21.0655 22.6798 21.545 23.5478L24.7905 29.3234C25.2668 30.1943 26.0101 30.8899 26.9134 31.31C27.8167 31.7301 28.8333 31.8529 29.8168 31.6607L32.9143 31.0492C33.8793 30.8607 34.8766 30.9753 35.7678 31.3771C36.659 31.7788 37.3997 32.4479 37.887 33.2912L41.3775 39.5026C41.9866 40.5864 42.1356 41.8703 41.7918 43.0719C41.4481 44.2734 40.6397 45.2942 39.5445 45.9096ZM7.67499 10.0495C7.35832 10.2136 7.10588 10.479 6.95879 10.8025C6.8117 11.126 6.77863 11.4885 6.86496 11.831C8.08472 17.2854 10.1326 22.5164 12.9386 27.3446L18.0303 36.1154C20.5453 40.457 23.6314 44.4424 27.2078 47.9671C27.4577 48.211 27.7833 48.3639 28.1327 48.4014C28.482 48.439 28.835 48.3591 29.1354 48.1744L38.0136 43.1853C38.3786 42.9801 38.6481 42.6399 38.7627 42.2394C38.8773 41.8389 38.8276 41.4109 38.6246 41.0496L35.1341 34.8382C34.9828 34.5323 34.7346 34.285 34.4274 34.1341C34.1202 33.9831 33.7708 33.9367 33.4326 34.002L30.3351 34.6135C28.7247 34.9293 27.0598 34.7384 25.5724 34.0675C24.0851 33.3965 22.8494 32.2789 22.0376 30.8704L18.792 25.0948C17.9902 23.6654 17.663 22.0172 17.8566 20.3838C18.0503 18.7503 18.7551 17.2142 19.8713 15.9928L22.0043 13.665C22.236 13.4102 22.378 13.0876 22.4088 12.7467C22.4396 12.4057 22.3575 12.0651 22.1749 11.7769L18.7227 5.63358C18.5196 5.27231 18.1799 5.00733 17.7782 4.89694C17.3766 4.78654 16.9458 4.83978 16.5807 5.04492L7.67499 10.0495Z" fill="#C42026"/>
<path fill-rule="evenodd" clip-rule="evenodd" d="M33.0124 9.75903C33.1454 9.22302 33.6878 8.89636 34.2238 9.02942C41.4359 10.8197 45.7776 18.0288 43.9873 25.2409C43.8543 25.7769 43.3119 26.1036 42.7759 25.9705C42.2398 25.8375 41.9132 25.2951 42.0462 24.7591C43.5704 18.619 39.882 12.4947 33.742 10.9705C33.206 10.8374 32.8793 10.2951 33.0124 9.75903ZM31.6273 15.8583C31.7604 15.3223 32.3028 14.9957 32.8388 15.1287C36.6123 16.0654 39.0262 19.7906 38.1 23.5217C37.967 24.0577 37.4246 24.3844 36.8885 24.2513C36.3525 24.1182 36.0259 23.5758 36.1589 23.0398C36.7996 20.4589 35.1382 17.7602 32.357 17.0698C31.8209 16.9367 31.4943 16.3944 31.6273 15.8583Z" fill="#6B1210"/>
</svg>
