<svg width="79" height="93" viewBox="0 0 79 93" fill="none" xmlns="http://www.w3.org/2000/svg">
<path d="M55.3558 17.4375H49.5288C49.5288 15.8959 48.9149 14.4175 47.8222 13.3274C46.7294 12.2374 45.2473 11.625 43.7019 11.625H40.7885V8.71875C40.7885 6.40639 39.8676 4.18875 38.2285 2.55366C36.5893 0.91858 34.3662 0 32.0481 0C29.73 0 27.5068 0.91858 25.8677 2.55366C24.2285 4.18875 23.3077 6.40639 23.3077 8.71875V11.625H20.3942C18.8488 11.625 17.3667 12.2374 16.274 13.3274C15.1812 14.4175 14.5673 15.8959 14.5673 17.4375H8.74038C6.42229 17.4375 4.19914 18.3561 2.56 19.9912C0.92086 21.6262 0 23.8439 0 26.1562V84.2812C0 86.5936 0.92086 88.8113 2.56 90.4463C4.19914 92.0814 6.42229 93 8.74038 93H34.9615C35.7342 93 36.4753 92.6938 37.0217 92.1488C37.568 91.6038 37.875 90.8645 37.875 90.0938C37.875 89.323 37.568 88.5837 37.0217 88.0387C36.4753 87.4937 35.7342 87.1875 34.9615 87.1875H8.74038C7.96769 87.1875 7.22664 86.8813 6.68026 86.3363C6.13388 85.7913 5.82692 85.052 5.82692 84.2812V26.1562C5.82692 25.3855 6.13388 24.6462 6.68026 24.1012C7.22664 23.5562 7.96769 23.25 8.74038 23.25H14.5673C14.5673 24.7916 15.1812 26.27 16.274 27.3601C17.3667 28.4501 18.8488 29.0625 20.3942 29.0625H43.7019C45.2473 29.0625 46.7294 28.4501 47.8222 27.3601C48.9149 26.27 49.5288 24.7916 49.5288 23.25H55.3558C56.1285 23.25 56.8695 23.5562 57.4159 24.1012C57.9623 24.6462 58.2692 25.3855 58.2692 26.1562V49.4062C58.2692 50.177 58.5762 50.9163 59.1226 51.4613C59.6689 52.0063 60.41 52.3125 61.1827 52.3125C61.9554 52.3125 62.6964 52.0063 63.2428 51.4613C63.7892 50.9163 64.0962 50.177 64.0962 49.4062V26.1562C64.0962 23.8439 63.1753 21.6262 61.5362 19.9912C59.897 18.3561 57.6739 17.4375 55.3558 17.4375ZM29.1346 8.71875C29.1346 7.94796 29.4416 7.20875 29.9879 6.66372C30.5343 6.11869 31.2754 5.8125 32.0481 5.8125C32.8208 5.8125 33.5618 6.11869 34.1082 6.66372C34.6546 7.20875 34.9615 7.94796 34.9615 8.71875V11.625H29.1346V8.71875ZM20.3942 23.25V17.4375H43.7019V20.3438V23.25H20.3942Z" fill="#C42026"/>
<path d="M34.9616 69.75C34.2877 69.7461 33.6361 69.5093 33.1176 69.08C32.5991 68.6507 32.2458 68.0554 32.1179 67.3955C31.99 66.7355 32.0954 66.0518 32.4161 65.4606C32.7368 64.8694 33.253 64.4074 33.8768 64.1533C34.5006 63.8991 35.1934 63.8685 35.8373 64.0667C36.4812 64.2648 37.0363 64.6795 37.4081 65.24C37.78 65.8006 37.9455 66.4724 37.8766 67.141C37.8077 67.8097 37.5085 68.4338 37.0301 68.9071C36.4718 69.4382 35.733 69.7392 34.9616 69.75Z" fill="#6B1210"/>
<path d="M17.4807 72.6562C17.0973 72.6584 16.7172 72.5851 16.3622 72.4405C16.0072 72.2958 15.6844 72.0827 15.4121 71.8134L12.4987 68.9071C11.9501 68.3599 11.6418 67.6176 11.6418 66.8437C11.6418 66.0697 11.9501 65.3275 12.4987 64.7802C13.0473 64.233 13.7914 63.9255 14.5672 63.9255C15.3431 63.9255 16.0872 64.233 16.6358 64.7802L17.4807 65.6521L21.2391 61.874C21.5107 61.603 21.8332 61.3881 22.1881 61.2414C22.543 61.0948 22.9234 61.0193 23.3076 61.0193C23.6918 61.0193 24.0722 61.0948 24.4271 61.2414C24.782 61.3881 25.1045 61.603 25.3762 61.874C25.6478 62.145 25.8633 62.4667 26.0103 62.8207C26.1573 63.1748 26.233 63.5542 26.233 63.9374C26.233 64.3206 26.1573 64.7001 26.0103 65.0542C25.8633 65.4082 25.6478 65.7299 25.3762 66.0009L19.5492 71.8134C19.277 72.0827 18.9542 72.2958 18.5992 72.4405C18.2442 72.5851 17.8641 72.6584 17.4807 72.6562Z" fill="#6B1210"/>
<path d="M49.5289 46.5H34.9616C34.1889 46.5 33.4478 46.1938 32.9014 45.6488C32.355 45.1038 32.0481 44.3645 32.0481 43.5938C32.0481 42.823 32.355 42.0837 32.9014 41.5387C33.4478 40.9937 34.1889 40.6875 34.9616 40.6875H49.5289C50.3016 40.6875 51.0426 40.9937 51.589 41.5387C52.1354 42.0837 52.4423 42.823 52.4423 43.5938C52.4423 44.3645 52.1354 45.1038 51.589 45.6488C51.0426 46.1938 50.3016 46.5 49.5289 46.5Z" fill="#6B1210"/>
<path d="M17.4807 49.4064C17.0973 49.4086 16.7172 49.3353 16.3622 49.1907C16.0072 49.0461 15.6844 48.833 15.4121 48.5636L12.4987 45.6574C11.9501 45.1101 11.6418 44.3679 11.6418 43.5939C11.6418 42.82 11.9501 42.0777 12.4987 41.5305C13.0473 40.9832 13.7914 40.6758 14.5672 40.6758C15.3431 40.6758 16.0872 40.9832 16.6358 41.5305L17.4807 42.4024L21.2391 38.6242C21.7877 38.077 22.5318 37.7695 23.3076 37.7695C24.0835 37.7695 24.8276 38.077 25.3762 38.6242C25.9248 39.1715 26.233 39.9137 26.233 40.6877C26.233 41.4616 25.9248 42.2039 25.3762 42.7511L19.5492 48.5636C19.277 48.833 18.9542 49.0461 18.5992 49.1907C18.2442 49.3353 17.8641 49.4086 17.4807 49.4064Z" fill="#6B1210"/>
<path d="M55.3557 61.0312H67.0096V69.75C67.0096 70.5208 66.7026 71.26 66.1562 71.805C65.6098 72.3501 64.8688 72.6562 64.0961 72.6562H58.2692C57.4965 72.6562 56.7554 72.3501 56.209 71.805C55.6627 71.26 55.3557 70.5208 55.3557 69.75V61.0312Z" fill="#6B1210"/>
<path d="M69.9231 93H52.4423C50.1242 93 47.901 92.0814 46.2619 90.4463C44.6228 88.8113 43.7019 86.5936 43.7019 84.2812V66.8438C43.7019 64.5314 44.6228 62.3137 46.2619 60.6787C47.901 59.0436 50.1242 58.125 52.4423 58.125H69.9231C72.2412 58.125 74.4643 59.0436 76.1034 60.6787C77.7426 62.3137 78.6634 64.5314 78.6634 66.8438V84.2812C78.6634 86.5936 77.7426 88.8113 76.1034 90.4463C74.4643 92.0814 72.2412 93 69.9231 93ZM52.4423 63.9375C51.6696 63.9375 50.9285 64.2437 50.3822 64.7887C49.8358 65.3337 49.5288 66.073 49.5288 66.8438V84.2812C49.5288 85.052 49.8358 85.7913 50.3822 86.3363C50.9285 86.8813 51.6696 87.1875 52.4423 87.1875H69.9231C70.6958 87.1875 71.4368 86.8813 71.9832 86.3363C72.5296 85.7913 72.8365 85.052 72.8365 84.2812V66.8438C72.8365 66.073 72.5296 65.3337 71.9832 64.7887C71.4368 64.2437 70.6958 63.9375 69.9231 63.9375H52.4423Z" fill="#C42026"/>
</svg>
