<svg width="11" height="24" viewBox="0 0 11 24" fill="none" xmlns="http://www.w3.org/2000/svg">
<path d="M9.61278 1.01022H7.29076C5.89361 0.872472 4.5063 1.33495 3.46335 2.2795C2.61719 3.33228 2.20395 4.6606 2.30234 6.00855V7.57281C2.30234 7.98605 1.96781 8.32083 1.55457 8.32083H0.747765C0.334524 8.32083 0 8.65513 0 9.06837V11.41C0 11.8232 0.334524 12.158 0.747765 12.158H1.55457C1.96781 12.158 2.30234 12.4923 2.30234 12.9055V22.5577C2.30234 22.971 2.63687 23.3057 3.05012 23.3057H6.1691C6.58235 23.3057 6.91688 22.971 6.91688 22.5577V12.9055C6.91688 12.4923 7.25141 12.158 7.66465 12.158H9.2389C9.66198 12.1481 10.0162 11.833 10.0654 11.41L10.3114 9.05876C10.3606 8.69472 10.1047 8.37003 9.7407 8.32083C9.71118 8.32083 9.67182 8.31074 9.6423 8.31074H7.66465C7.25141 8.31074 6.91688 7.97645 6.91688 7.5632V6.38232C6.91688 6.15602 6.92672 5.92955 6.95623 5.71309C6.98575 5.54583 7.04478 5.38842 7.14317 5.24083C7.2514 5.08341 7.40883 4.96551 7.59578 4.92616C7.87127 4.85728 8.1566 4.82792 8.44193 4.83776H9.62262C10.0359 4.83776 10.3704 4.50298 10.3704 4.08974V1.73806C10.3606 1.3445 10.026 1.01022 9.61278 1.01022Z" fill="black"/>
</svg>
