<svg width="93" height="93" viewBox="0 0 93 93" fill="none" xmlns="http://www.w3.org/2000/svg">
<path d="M31.7758 93H12.9142C11.0191 93.0045 9.17403 92.3913 7.65851 91.2534C6.14299 90.1154 5.03952 88.5146 4.5152 86.6934C1.81896 77.2368 0.392087 67.4637 0.27208 57.631L0.0105183 38.7114C-0.143057 27.7321 1.38592 16.794 4.54426 6.27768C5.07522 4.45708 6.18531 2.85925 7.70623 1.72642C9.22715 0.5936 11.076 -0.0124372 12.9724 0.000193498H31.7758C34.0881 0.000193498 36.3058 0.918771 37.9408 2.55385C39.5759 4.18893 40.4945 6.40657 40.4945 8.71892V21.9714C40.5015 23.7801 39.9457 25.5462 38.9043 27.0251C37.8629 28.5039 36.3873 29.6222 34.682 30.2251L29.1601 32.0851C27.4006 32.6384 25.8618 33.7355 24.7652 35.2186C23.6685 36.7017 23.0705 38.4944 23.057 40.3388V52.6613C23.0359 54.5076 23.6014 56.3128 24.6721 57.8171C25.7428 59.3213 27.2634 60.4467 29.0148 61.0313L34.5367 62.8622C36.2551 63.4358 37.7522 64.5304 38.8199 65.9939C39.8876 67.4575 40.4729 69.2173 40.4945 71.0288V84.2812C40.4945 86.5936 39.5759 88.8112 37.9408 90.4463C36.3058 92.0814 34.0881 93 31.7758 93ZM12.9724 5.81268C12.3162 5.7902 11.6718 5.99054 11.1441 6.38106C10.6164 6.77158 10.2364 7.32927 10.0661 7.9633C7.10497 17.9192 5.67426 28.2674 5.823 38.6532L6.08457 57.5147C6.2053 66.8464 7.56371 76.1207 10.1242 85.095C10.3055 85.7182 10.6901 86.2628 11.2168 86.6421C11.7435 87.0213 12.382 87.2133 13.0305 87.1875H31.7758C32.5465 87.1875 33.2858 86.8813 33.8308 86.3363C34.3758 85.7912 34.682 85.052 34.682 84.2812V71.0288C34.7151 70.395 34.5398 69.7679 34.183 69.2431C33.8261 68.7183 33.3073 68.3247 32.7058 68.1225L27.1839 66.2916C24.3149 65.3362 21.8155 63.5097 20.0338 61.0664C18.2522 58.6232 17.2771 55.685 17.2445 52.6613V40.3388C17.2469 37.2903 18.2079 34.3197 19.9917 31.8474C21.7754 29.3752 24.2915 27.5266 27.1839 26.5633V26.5633L32.7058 24.7323C33.3073 24.5301 33.8261 24.1366 34.183 23.6118C34.5398 23.087 34.7151 22.4598 34.682 21.8261V8.71892C34.682 7.94814 34.3758 7.20892 33.8308 6.6639C33.2858 6.11887 32.5465 5.81268 31.7758 5.81268H12.9724Z" fill="#C42026"/>
<path d="M66.6507 72.6565C61.1842 72.6626 55.8533 70.9558 51.4068 67.7761C46.9603 64.5963 43.6218 60.1033 41.8604 54.9284C41.6083 54.2655 41.1225 53.7177 40.4945 53.3881L33.1708 48.9997C32.7371 48.7423 32.3778 48.3766 32.1283 47.9384C31.8788 47.5002 31.7476 47.0046 31.7476 46.5003C31.7476 45.996 31.8788 45.5004 32.1283 45.0622C32.3778 44.624 32.7371 44.2583 33.1708 44.0009L40.4945 39.6125C41.1225 39.2829 41.6083 38.7351 41.8604 38.0722C43.8536 32.1184 47.922 27.0802 53.3224 23.8777C58.7229 20.6753 65.0951 19.5223 71.2753 20.6293C77.4556 21.7363 83.0314 25.0295 86.9845 29.9074C90.9376 34.7852 93.0042 40.9223 92.8069 47.1978C92.6053 53.6073 90.0791 59.7247 85.6996 64.409C81.3201 69.0933 75.3863 72.0247 69.0047 72.6565C68.2207 72.7003 67.4348 72.7003 66.6507 72.6565V72.6565ZM40.4945 46.5003L43.6623 48.4184C45.4642 49.4577 46.8351 51.107 47.5276 53.0684C48.9795 57.3753 51.8319 61.0719 55.6297 63.5687C59.4275 66.0654 63.952 67.2185 68.4816 66.844C73.4434 66.3529 78.0573 64.0743 81.4634 60.4329C84.8695 56.7916 86.8353 52.036 86.9944 47.0525V47.0525C87.1207 42.1924 85.5024 37.4478 82.4325 33.6779C79.3626 29.9081 75.0441 27.3622 70.2592 26.5015C65.4743 25.6408 60.5394 26.5221 56.3482 28.9858C52.1569 31.4495 48.9866 35.3328 47.4114 39.9322C46.6668 41.9079 45.2457 43.5555 43.4007 44.5822L40.4945 46.5003Z" fill="#C42026"/>
<path d="M75.3693 43.5935H69.5569V37.781C69.5569 37.0102 69.2507 36.271 68.7056 35.726C68.1606 35.1809 67.4214 34.8748 66.6506 34.8748C65.8798 34.8748 65.1406 35.1809 64.5956 35.726C64.0506 36.271 63.7444 37.0102 63.7444 37.781V43.5935H57.9319C57.1611 43.5935 56.4219 43.8997 55.8769 44.4447C55.3318 44.9897 55.0256 45.7289 55.0256 46.4997C55.0256 47.2705 55.3318 48.0097 55.8769 48.5548C56.4219 49.0998 57.1611 49.406 57.9319 49.406H63.7444V55.2185C63.7444 55.9892 64.0506 56.7285 64.5956 57.2735C65.1406 57.8185 65.8798 58.1247 66.6506 58.1247C67.4214 58.1247 68.1606 57.8185 68.7056 57.2735C69.2507 56.7285 69.5569 55.9892 69.5569 55.2185V49.406H75.3693C76.1401 49.406 76.8793 49.0998 77.4244 48.5548C77.9694 48.0097 78.2756 47.2705 78.2756 46.4997C78.2756 45.7289 77.9694 44.9897 77.4244 44.4447C76.8793 43.8997 76.1401 43.5935 75.3693 43.5935Z" fill="#6B1210"/>
</svg>
