<svg width="100" height="93" viewBox="0 0 100 93" fill="none" xmlns="http://www.w3.org/2000/svg">
<path d="M89.9 24.8H74.4C73.5778 24.8 72.7893 25.1266 72.208 25.708C71.6266 26.2893 71.3 27.0778 71.3 27.9C71.3 28.7222 71.6266 29.5107 72.208 30.092C72.7893 30.6734 73.5778 31 74.4 31H89.9C90.7222 31 91.5107 31.3266 92.092 31.908C92.6734 32.4893 93 33.2778 93 34.1V83.7C93 84.5222 92.6734 85.3107 92.092 85.892C91.5107 86.4734 90.7222 86.8 89.9 86.8H9.3C8.47783 86.8 7.68933 86.4734 7.10797 85.892C6.52661 85.3107 6.2 84.5222 6.2 83.7V34.1C6.2 33.2778 6.52661 32.4893 7.10797 31.908C7.68933 31.3266 8.47783 31 9.3 31H34.1C34.1 32.6443 34.7532 34.2213 35.9159 35.3841C37.0787 36.5468 38.6557 37.2 40.3 37.2H58.9C60.5443 37.2 62.1213 36.5468 63.2841 35.3841C64.4468 34.2213 65.1 32.6443 65.1 31V6.2C65.1 4.55566 64.4468 2.97866 63.2841 1.81594C62.1213 0.653212 60.5443 0 58.9 0H40.3C38.6557 0 37.0787 0.653212 35.9159 1.81594C34.7532 2.97866 34.1 4.55566 34.1 6.2V24.8H9.3C6.83349 24.8 4.468 25.7798 2.72391 27.5239C0.979819 29.268 0 31.6335 0 34.1L0 83.7C0 86.1665 0.979819 88.532 2.72391 90.2761C4.468 92.0202 6.83349 93 9.3 93H89.9C92.3665 93 94.732 92.0202 96.4761 90.2761C98.2202 88.532 99.2 86.1665 99.2 83.7V34.1C99.2 31.6335 98.2202 29.268 96.4761 27.5239C94.732 25.7798 92.3665 24.8 89.9 24.8ZM40.3 6.2H58.9V31H40.3V6.2Z" fill="#C42026"/>
<path d="M12.3999 77.5004C12.3999 78.3225 12.7265 79.111 13.3079 79.6924C13.8892 80.2738 14.6777 80.6004 15.4999 80.6004H40.2999C41.1221 80.6004 41.9106 80.2738 42.4919 79.6924C43.0733 79.111 43.3999 78.3225 43.3999 77.5004C43.3988 74.9621 42.7743 72.4629 41.5814 70.2224C40.3885 67.982 38.6635 66.0687 36.5582 64.6509C38.3232 62.9292 39.5349 60.7205 40.0385 58.3068C40.5421 55.8932 40.3147 53.3842 39.3853 51.1004C38.456 48.8166 36.8669 46.8617 34.821 45.4855C32.7752 44.1093 30.3655 43.3743 27.8999 43.3743C25.4343 43.3743 23.0246 44.1093 20.9788 45.4855C18.933 46.8617 17.3438 48.8166 16.4145 51.1004C15.4851 53.3842 15.2577 55.8932 15.7613 58.3068C16.2649 60.7205 17.4766 62.9292 19.2416 64.6509C17.1363 66.0687 15.4113 67.982 14.2184 70.2224C13.0255 72.4629 12.401 74.9621 12.3999 77.5004ZM21.6999 55.8004C21.6999 54.5741 22.0635 53.3754 22.7448 52.3558C23.4261 51.3362 24.3944 50.5416 25.5273 50.0723C26.6602 49.603 27.9068 49.4803 29.1095 49.7195C30.3121 49.9587 31.4169 50.5492 32.284 51.4163C33.151 52.2834 33.7415 53.3881 33.9808 54.5908C34.22 55.7935 34.0972 57.0401 33.628 58.173C33.1587 59.3059 32.364 60.2742 31.3444 60.9555C30.3249 61.6367 29.1261 62.0004 27.8999 62.0004C26.2556 62.0004 24.6786 61.3471 23.5158 60.1844C22.3531 59.0217 21.6999 57.4447 21.6999 55.8004ZM27.8999 68.2004C29.8228 68.2027 31.6978 68.7998 33.2679 69.9098C34.838 71.0198 36.0263 72.5884 36.6698 74.4004H19.13C19.7735 72.5884 20.9618 71.0198 22.5319 69.9098C24.102 68.7998 25.9771 68.2027 27.8999 68.2004Z" fill="#C42026"/>
<path d="M77.4998 74.4H58.8998C58.0776 74.4 57.2891 74.0733 56.7078 73.492C56.1264 72.9106 55.7998 72.1221 55.7998 71.3C55.7998 70.4778 56.1264 69.6893 56.7078 69.1079C57.2891 68.5266 58.0776 68.2 58.8998 68.2H77.4998C78.322 68.2 79.1105 68.5266 79.6918 69.1079C80.2732 69.6893 80.5998 70.4778 80.5998 71.3C80.5998 72.1221 80.2732 72.9106 79.6918 73.492C79.1105 74.0733 78.322 74.4 77.4998 74.4Z" fill="#6B1210"/>
<path d="M83.6998 62H58.8998C58.0776 62 57.2891 61.6734 56.7078 61.0921C56.1264 60.5107 55.7998 59.7222 55.7998 58.9C55.7998 58.0779 56.1264 57.2894 56.7078 56.708C57.2891 56.1267 58.0776 55.8 58.8998 55.8H83.6998C84.522 55.8 85.3105 56.1267 85.8918 56.708C86.4732 57.2894 86.7998 58.0779 86.7998 58.9C86.7998 59.7222 86.4732 60.5107 85.8918 61.0921C85.3105 61.6734 84.522 62 83.6998 62Z" fill="#6B1210"/>
<path d="M83.6998 49.5999H58.8998C58.0776 49.5999 57.2891 49.2733 56.7078 48.6919C56.1264 48.1106 55.7998 47.3221 55.7998 46.4999C55.7998 45.6777 56.1264 44.8892 56.7078 44.3079C57.2891 43.7265 58.0776 43.3999 58.8998 43.3999H83.6998C84.522 43.3999 85.3105 43.7265 85.8918 44.3079C86.4732 44.8892 86.7998 45.6777 86.7998 46.4999C86.7998 47.3221 86.4732 48.1106 85.8918 48.6919C85.3105 49.2733 84.522 49.5999 83.6998 49.5999Z" fill="#6B1210"/>
<path d="M49.6619 24.8001C49.2548 24.8021 48.8513 24.724 48.4744 24.5701C48.0975 24.4161 47.7547 24.1895 47.4654 23.9031C46.8811 23.3246 46.5505 22.5378 46.5464 21.7156C46.5423 20.8934 46.865 20.1033 47.4434 19.519C48.0219 18.9348 48.8088 18.6042 49.6309 18.6001H49.6619C50.4841 18.6001 51.2726 18.9267 51.854 19.5081C52.4353 20.0894 52.7619 20.8779 52.7619 21.7001C52.7619 22.5223 52.4353 23.3108 51.854 23.8921C51.2726 24.4735 50.4841 24.8001 49.6619 24.8001Z" fill="#6B1210"/>
</svg>
