<svg width="24" height="24" viewBox="0 0 24 24" fill="none" xmlns="http://www.w3.org/2000/svg">
<path d="M15.8237 0.986328H7.19481C3.21982 0.986328 0.00244141 4.20377 0.00244141 8.17876V16.8077C0.00244141 20.7826 3.21982 24.0001 7.19481 24.0001H15.8237C19.7987 24.0001 23.0161 20.7826 23.0161 16.8077V8.17876C23.0161 4.21361 19.7888 0.986328 15.8237 0.986328ZM20.8613 16.8077C20.8613 19.5921 18.6082 21.8454 15.8237 21.8454H7.19481C4.42019 21.8454 2.16704 19.5921 2.1572 16.8077V8.17876C2.1572 5.40414 4.41035 3.15087 7.19481 3.14103H15.8237C18.6082 3.14103 20.8613 5.3943 20.8613 8.17876V16.8077Z" fill="black"/>
<path d="M11.5015 6.73926C8.32344 6.73926 5.74561 9.31719 5.74561 12.4952C5.74561 15.6732 8.32344 18.2512 11.5015 18.2512C14.6795 18.2512 17.2573 15.6732 17.2573 12.4952C17.2573 9.31719 14.6795 6.73926 11.5015 6.73926ZM11.5015 16.0864C9.51397 16.0864 7.91021 14.4729 7.91021 12.4952C7.91021 10.5176 9.52381 8.90405 11.5015 8.90405C13.489 8.90405 15.0927 10.5176 15.0927 12.4952C15.0927 14.4827 13.489 16.0864 11.5015 16.0864Z" fill="black"/>
<path d="M17.6942 7.07573C18.1181 7.07573 18.4617 6.73186 18.4617 6.30801C18.4617 5.88416 18.1181 5.54077 17.6942 5.54077C17.2704 5.54077 16.9268 5.88416 16.9268 6.30801C16.9268 6.73186 17.2704 7.07573 17.6942 7.07573Z" fill="black"/>
</svg>
