<svg width="213" height="73" viewBox="0 0 213 73" fill="none" xmlns="http://www.w3.org/2000/svg">
<path d="M64.6787 54.5875L65.1161 52.3521C64.5815 53.1296 63.9984 53.7128 63.3667 54.0529C62.7349 54.3931 61.9574 54.5875 61.0827 54.5875H51.947C50.8293 54.5875 50.0032 54.3931 49.4687 54.0043C48.9341 53.6156 48.6426 52.9838 48.6426 52.0606C48.6426 51.6232 48.6912 51.1373 48.837 50.5055L52.3843 33.6433H58.1671L55.0084 48.4646C54.9598 48.7561 54.9113 48.9019 54.9113 48.9991C54.9113 49.4365 55.2514 49.6794 55.8831 49.6794H64.2414C64.6787 49.6794 65.0189 49.5822 65.2133 49.4365C65.4076 49.2907 65.5534 48.9505 65.6506 48.4646L68.8093 33.6433H74.592L70.1699 54.6361H64.6787V54.5875Z" fill="#08090B"/>
<path d="M72.502 54.5874L76.924 33.5947H82.561L82.075 35.8786C82.6096 35.0525 83.1927 34.518 83.8244 34.1292C84.4562 33.789 85.2337 33.5947 86.157 33.5947H92.2313L91.1622 38.5999H82.804C82.3666 38.5999 82.075 38.6971 81.8807 38.8429C81.6863 38.9886 81.4919 39.3288 81.3947 39.7662L78.2847 54.5874H72.502Z" fill="#08090B"/>
<path d="M89.1699 54.5875L95.4872 24.7991H101.27L96.0217 49.4365H105.06C105.498 49.4365 105.789 49.3393 105.935 49.1935C106.129 49.0477 106.275 48.7075 106.372 48.2702L108.17 39.7662C108.219 39.4746 108.268 39.3288 108.268 39.2316C108.268 38.9887 108.17 38.7943 108.025 38.7457C107.879 38.6485 107.636 38.5999 107.344 38.5999H100.395L101.464 33.5947H111.329C113.564 33.5947 114.633 34.518 114.633 36.3646C114.633 36.5589 114.633 36.7533 114.585 36.9963C114.536 37.2393 114.536 37.4336 114.439 37.7252L111.766 50.5055C111.475 51.9148 110.94 52.9353 110.211 53.6156C109.482 54.2959 108.365 54.5875 106.858 54.5875H89.1699Z" fill="#08090B"/>
<path d="M116.869 54.5875C115.703 54.5875 114.877 54.3931 114.342 54.0043C113.807 53.6156 113.564 52.9838 113.564 52.1091C113.564 51.7204 113.613 51.1859 113.759 50.5055L116.432 37.7252C116.723 36.316 117.258 35.2955 117.938 34.6152C118.667 33.9348 119.736 33.6433 121.242 33.6433H135.578C136.793 33.6433 137.667 33.8377 138.153 34.2264C138.639 34.6152 138.882 35.2469 138.882 36.1216C138.882 36.5104 138.834 37.0449 138.688 37.7252L136.015 50.5055C135.723 51.9148 135.189 52.9353 134.509 53.6156C133.78 54.2959 132.711 54.5875 131.156 54.5875H116.869ZM132.419 39.8148C132.468 39.5232 132.516 39.3774 132.516 39.3288C132.516 38.8915 132.128 38.6485 131.399 38.6485H123.186C122.749 38.6485 122.409 38.7457 122.263 38.8915C122.068 39.0373 121.971 39.3774 121.874 39.8148L120.076 48.3674C120.028 48.4646 120.028 48.5618 120.028 48.6589C120.028 48.7561 120.028 48.8047 120.028 48.9019C120.028 49.2907 120.319 49.4851 120.951 49.4851H129.163C129.649 49.4851 130.038 49.3879 130.232 49.2421C130.475 49.0963 130.621 48.8047 130.67 48.3674L132.419 39.8148Z" fill="#08090B"/>
<path d="M154.093 54.5875L157.203 39.7662C157.252 39.4746 157.301 39.3288 157.301 39.2802C157.301 38.8429 156.96 38.5999 156.28 38.5999H147.63C147.193 38.5999 146.901 38.6971 146.707 38.8429C146.513 38.9887 146.367 39.3288 146.27 39.7662L143.16 54.5875H137.377L143.694 24.7991H149.477L147.096 35.8786C147.63 35.0525 148.262 34.518 148.894 34.1292C149.526 33.7891 150.303 33.5947 151.178 33.5947H160.362C161.48 33.5947 162.306 33.7891 162.84 34.1778C163.375 34.5666 163.618 35.1983 163.618 36.1216C163.618 36.6561 163.569 37.1907 163.472 37.6766L159.925 54.5389H154.093V54.5875Z" fill="#08090B"/>
<path d="M178.778 54.5875L179.216 52.3521C178.681 53.1296 178.098 53.7128 177.466 54.0529C176.835 54.3931 176.057 54.5875 175.182 54.5875H166.047C164.929 54.5875 164.103 54.3931 163.568 54.0043C163.034 53.6156 162.742 52.9838 162.742 52.0606C162.742 51.6232 162.791 51.1373 162.937 50.5055L166.484 33.6433H172.267L169.108 48.4646C169.059 48.7561 169.011 48.9019 169.011 48.9991C169.011 49.4365 169.351 49.6794 169.983 49.6794H178.341C178.778 49.6794 179.118 49.5822 179.313 49.4365C179.507 49.2907 179.653 48.9505 179.75 48.4646L182.909 33.6433H188.692L184.27 54.6361H178.778V54.5875Z" fill="#08090B"/>
<path d="M186.65 54.5875L192.968 24.7991H198.75L193.502 49.4365H202.541C202.978 49.4365 203.27 49.3393 203.415 49.1935C203.61 49.0477 203.756 48.7075 203.853 48.2702L205.651 39.7662C205.699 39.4746 205.748 39.3288 205.748 39.2316C205.748 38.9887 205.651 38.7943 205.505 38.7457C205.359 38.6485 205.116 38.5999 204.825 38.5999H197.876L198.945 33.5947H208.809C211.045 33.5947 212.114 34.518 212.114 36.3646C212.114 36.5589 212.114 36.7533 212.065 36.9963C212.017 37.2393 212.017 37.4336 211.919 37.7252L209.247 50.5055C208.955 51.9148 208.421 52.9353 207.692 53.6156C206.963 54.2959 205.845 54.5875 204.339 54.5875H186.65Z" fill="#08090B"/>
<path d="M19.2434 38.114C18.4659 40.9324 17.6884 43.7509 16.8623 46.5694H16.9108C15.8418 46.5694 14.7727 46.5208 13.7522 46.5208C12.1972 46.5208 10.6908 46.5208 9.13574 46.5208C8.98996 46.5208 8.84418 46.4722 8.69839 46.4722C9.42731 43.7509 10.1562 41.0296 10.9337 38.1626H0C0.485944 36.4618 0.874699 34.9067 1.31205 33.3517C1.84659 31.5051 2.33253 29.6585 2.86707 27.812C2.96426 27.4718 3.06145 27.2288 3.4988 27.2288C6.85181 27.2288 10.1562 27.2288 13.5092 27.2288C13.5578 27.2288 13.655 27.2774 13.8494 27.326C12.8775 30.922 11.9056 34.4694 10.8851 38.1626L19.2434 38.114Z" fill="#6B1210"/>
<path d="M15.0645 8.90872C17.4456 6.86775 20.0211 5.26414 22.7424 3.90349C26.3869 2.1055 30.2259 0.987831 34.2106 0.404699C34.9396 0.30751 35.3769 0.404699 35.7657 1.13361C36.5432 2.64004 37.4665 4.14647 38.3412 5.6043C38.001 6.04165 37.7094 6.09024 37.4665 5.5557C37.1749 4.82679 36.689 4.7296 35.96 4.87538C30.4689 5.99305 25.4637 8.27699 21.0416 11.7272C20.8472 11.873 20.4098 11.9702 20.2155 11.873C18.5147 10.9011 16.8624 9.9292 15.0645 8.90872Z" fill="#B22024"/>
<path d="M11.1771 23.8758H12.9751C13.1209 24.3131 13.1209 24.6047 12.5863 24.6047C9.76787 24.6047 6.9008 24.6047 4.08233 24.6047C4.03373 22.175 10.0108 13.0878 13.5582 10.318C15.9394 11.6786 18.3205 13.0392 20.7016 14.4485C20.41 15.1288 20.41 15.1288 19.7297 14.7401C19.341 14.4971 18.9522 14.3027 18.5149 14.0597C15.4534 16.8296 13.0723 20.0854 11.1771 23.8758Z" fill="#C42026"/>
<path d="M16.8623 46.618H25.3177C25.2205 47.0553 25.1233 47.4441 25.0262 47.7842C24.443 49.971 23.8113 52.1577 23.2282 54.3445C23.131 54.7332 22.9852 55.0248 22.4992 55.0248C20.0209 55.0248 17.5426 55.0248 15.0157 55.0248C14.9185 55.0248 14.8213 54.9762 14.627 54.9276C15.1129 53.2268 15.5988 51.526 16.0362 49.8252C16.3764 48.7075 16.6193 47.6385 16.8623 46.618C16.8623 46.5694 16.8623 46.618 16.8623 46.618Z" fill="#6B1210"/>
<path d="M54.5222 3.27178C53.4531 4.24367 52.4326 5.16696 51.2664 6.23604C51.1206 5.84728 51.072 5.60431 50.9748 5.36134L51.1206 5.16696C49.8571 4.92399 48.6423 4.58383 47.3788 4.53524C45.0463 4.38945 42.7623 4.38945 40.4784 4.29226C40.2354 4.29226 39.8467 4.19508 39.7495 4.0007C39.0206 2.78584 38.2916 1.52238 37.6113 0.307524C39.7009 -0.761553 50.5374 1.13363 54.5222 3.27178Z" fill="#A01D21"/>
<path d="M19.2441 38.1626C19.7787 36.2188 20.4104 34.275 20.8964 32.2826C21.0421 31.6509 21.3337 31.4565 21.9654 31.5051C23.8606 31.5537 25.7558 31.5051 27.6996 31.5051C27.4566 32.3798 27.2622 33.1087 27.0678 33.8862C26.7277 35.0525 26.3875 36.2674 26.096 37.4336C25.9502 37.9682 25.7558 38.1626 25.2213 38.114C23.4233 38.0654 21.6739 38.0654 19.8759 38.0654C19.6815 38.0654 19.4385 38.114 19.2441 38.1626C19.2441 38.114 19.2441 38.1626 19.2441 38.1626Z" fill="#6B1210"/>
<path d="M56.9531 7.15934C57.1475 6.96496 57.2447 6.86777 57.3419 6.72199C58.7025 5.36134 58.7511 5.31275 60.3547 6.38183C66.5262 10.5123 71.1427 15.9549 74.1555 22.7095C74.3013 23.0011 74.3985 23.3413 74.4957 23.6814C70.511 16.2465 64.7768 10.6581 56.9531 7.15934Z" fill="#8E191C"/>
<path d="M50.8782 8.32559L42.3742 14.5943C41.9369 14.3999 41.4023 14.3027 40.9164 14.3027C38.7296 14.3027 36.9316 16.1007 36.9316 18.2874C36.9316 20.4742 38.7296 22.2722 40.9164 22.2722C43.1031 22.2722 44.9011 20.4742 44.9011 18.2874C44.9011 17.7529 44.8039 17.267 44.6096 16.8296L50.8782 8.32559Z" fill="#5E1412"/>
<path d="M144.227 71.9842L144.13 70.7208H141.166L140.534 71.9842H138.736L143.013 63.7718H145.442L146.074 71.9842H144.227ZM143.839 65.424L141.846 69.3601H144.082L143.839 65.424Z" fill="black"/>
<path d="M148.36 71.9842C147.922 71.9842 147.631 71.9356 147.436 71.7899C147.242 71.6441 147.193 71.4011 147.193 71.1095C147.193 71.0124 147.193 70.9638 147.193 70.8666C147.193 70.7694 147.242 70.6722 147.242 70.575L148.7 63.7718H150.546L149.234 69.8947C149.186 69.9919 149.186 70.0891 149.186 70.0891C149.186 70.1862 149.234 70.2348 149.283 70.2834C149.332 70.332 149.429 70.332 149.574 70.332H152.004C152.15 70.332 152.296 70.2834 152.344 70.2348C152.442 70.1862 152.49 70.0405 152.539 69.8947L153.851 63.7718H155.6L154.191 70.575C154.094 71.0609 153.899 71.4011 153.656 71.6441C153.413 71.8871 153.025 71.9842 152.49 71.9842H148.36Z" fill="black"/>
<path d="M158.855 71.9842H157.009L158.369 65.3754H156.377L156.717 63.7718H162.597L162.257 65.3754H160.216L158.855 71.9842Z" fill="black"/>
<path d="M163.375 71.9842C162.987 71.9842 162.646 71.887 162.501 71.7898C162.306 71.6441 162.209 71.4011 162.209 71.1095C162.209 70.9637 162.209 70.7694 162.258 70.575L163.375 65.2296C163.472 64.7437 163.667 64.4035 163.91 64.1605C164.153 63.9176 164.542 63.8204 165.076 63.8204H169.158C169.595 63.8204 169.887 63.869 170.033 64.0147C170.227 64.1605 170.324 64.4035 170.324 64.6951C170.324 64.7923 170.324 64.8409 170.324 64.938C170.324 65.0352 170.276 65.1324 170.276 65.2296L169.158 70.575C169.061 71.0609 168.866 71.4011 168.623 71.6441C168.38 71.887 167.992 71.9842 167.457 71.9842H163.375ZM168.332 65.8613C168.332 65.8127 168.332 65.7641 168.332 65.7641C168.332 65.7156 168.332 65.7156 168.332 65.667C168.332 65.4726 168.186 65.3754 167.895 65.3754H165.611C165.465 65.3754 165.319 65.424 165.27 65.4726C165.222 65.5212 165.125 65.667 165.125 65.8613L164.25 69.9433C164.25 70.0405 164.25 70.089 164.25 70.089C164.25 70.2834 164.347 70.332 164.59 70.332H166.874C167.068 70.332 167.214 70.2834 167.263 70.2348C167.36 70.1862 167.409 70.089 167.409 69.9433L168.332 65.8613Z" fill="black"/>
<path d="M173.822 71.9842L174.162 70.3806H178.536C178.682 70.3806 178.779 70.332 178.876 70.2834C178.925 70.2348 178.973 70.1376 179.022 69.9433L179.265 68.8256C179.265 68.777 179.265 68.7284 179.265 68.6798C179.265 68.534 179.168 68.4854 178.925 68.4854H175.669C175.329 68.4854 175.086 68.4368 174.94 68.2911C174.794 68.1453 174.697 67.9509 174.697 67.7079C174.697 67.6107 174.697 67.5135 174.746 67.3678L175.183 65.2296C175.28 64.7437 175.474 64.4035 175.717 64.1605C175.96 63.9176 176.349 63.8204 176.884 63.8204H181.986L181.646 65.3754H177.272C177.127 65.3754 177.029 65.424 176.981 65.4726C176.932 65.5212 176.884 65.6184 176.835 65.7641L176.592 66.8332C176.592 66.8818 176.592 66.8818 176.592 66.9304C176.592 66.979 176.592 66.979 176.592 67.0276C176.592 67.1734 176.689 67.222 176.835 67.222H180.14C180.48 67.222 180.723 67.2706 180.868 67.4164C181.014 67.5621 181.111 67.7565 181.111 68.0481C181.111 68.1453 181.111 68.2425 181.063 68.3882L180.577 70.6236C180.48 71.1095 180.285 71.4497 180.042 71.6927C179.799 71.9356 179.411 72.0328 178.876 72.0328H173.822V71.9842Z" fill="black"/>
<path d="M186.7 71.9842L186.603 70.7208H183.639L183.007 71.9842H181.209L185.485 63.7718H187.915L188.547 71.9842H186.7ZM186.311 65.424L184.319 69.3601H186.554L186.311 65.424Z" fill="black"/>
<path d="M195.106 71.9842H189.615L191.316 63.7718H193.163L191.802 70.332H195.447L195.106 71.9842Z" fill="black"/>
<path d="M196.273 71.9842L197.537 65.9585H199.432L199.141 67.3192H202.153L201.862 68.6312H198.849L198.46 70.332H202.639L202.299 71.9842H196.273ZM197.683 65.3754L198.023 63.7718H204.146L203.806 65.3754H197.683Z" fill="black"/>
<path d="M203.902 71.9842L204.242 70.3806H208.616C208.762 70.3806 208.859 70.332 208.956 70.2834C209.005 70.2348 209.053 70.1376 209.102 69.9433L209.345 68.8256C209.345 68.777 209.345 68.7284 209.345 68.6798C209.345 68.534 209.248 68.4854 209.005 68.4854H205.749C205.409 68.4854 205.166 68.4368 205.02 68.2911C204.874 68.1453 204.777 67.9509 204.777 67.7079C204.777 67.6107 204.777 67.5135 204.826 67.3678L205.263 65.2296C205.36 64.7437 205.555 64.4035 205.798 64.1605C206.04 63.9176 206.429 63.8204 206.964 63.8204H212.066L211.726 65.3754H207.353C207.207 65.3754 207.11 65.424 207.061 65.4726C207.012 65.5212 206.964 65.6184 206.915 65.7641L206.672 66.8332C206.672 66.8818 206.672 66.8818 206.672 66.9304C206.672 66.979 206.672 66.979 206.672 67.0276C206.672 67.1734 206.769 67.222 206.915 67.222H210.22C210.56 67.222 210.803 67.2706 210.949 67.4164C211.094 67.5621 211.192 67.7565 211.192 68.0481C211.192 68.1453 211.191 68.2425 211.143 68.3882L210.657 70.6236C210.56 71.1095 210.365 71.4497 210.122 71.6927C209.879 71.9356 209.491 72.0328 208.956 72.0328H203.902V71.9842Z" fill="black"/>
<path d="M40.6241 54.5875H34.3554L39.1177 32.0397H32.3145L33.4807 26.5485H53.4044L52.2382 32.0397H45.4349L40.6241 54.5875Z" fill="#08090B"/>
</svg>
