<svg width="149" height="23" viewBox="0 0 149 23" fill="none" xmlns="http://www.w3.org/2000/svg">
<path d="M0 0.300293H4.84926L7.8295 5.21771L10.8097 0.300293H15.659V14.2902H11.0257V7.35451L7.82557 12.3312H7.74704L4.54692 7.35451V14.2902H0V0.300293Z" fill="#E62825"/>
<path d="M22.0908 0.201416H26.7006L32.5629 14.2901H27.5173L26.783 12.41H21.9141L21.1995 14.2901H16.2324L22.0908 0.201416ZM25.6286 9.09226L24.3564 5.69549L23.0842 9.09226H25.6286Z" fill="#E62825"/>
<path d="M36.4775 7.17677L31.9659 0.300293H37.251L39.2574 3.63782L41.2835 0.300293H46.4705L41.9628 7.11358L46.6707 14.2902H41.3856L39.1789 10.6525L36.9526 14.2902H31.7656L36.4775 7.17677Z" fill="#E62825"/>
<path d="M45.8735 7.33465V7.29515C45.8735 3.11634 49.109 0 53.2633 0C56.322 0 58.3874 1.5009 59.5614 3.6377L55.7252 5.89695C55.2108 4.89767 54.4726 4.19856 53.2004 4.19856C51.6298 4.19856 50.5972 5.57702 50.5972 7.25566V7.29515C50.5972 9.11598 51.6691 10.3917 53.2004 10.3917C54.5119 10.3917 55.2462 9.67289 55.8234 8.63411L59.6557 10.8104C58.4855 12.888 56.538 14.5864 53.0787 14.5864C49.2307 14.5903 45.8735 11.6715 45.8735 7.33465Z" fill="#E62825"/>
<path d="M60.5552 0.300293H67.3481C69.81 0.300293 71.3806 0.920401 72.3544 1.89993C73.1868 2.74123 73.6266 3.78001 73.6266 5.21771V5.25721C73.6266 7.29527 72.5743 8.71322 70.8859 9.53476L74.1253 14.2902H68.8205L66.1976 10.2931H65.2042V14.2902H60.5552V0.300293ZM67.2106 6.95559C68.3219 6.95559 68.9972 6.45397 68.9972 5.59688V5.55738C68.9972 4.65685 68.3022 4.21843 67.2303 4.21843H65.2042V6.95559H67.2106Z" fill="#E62825"/>
<path d="M74.7573 0.300293H86.6194V4.13548H79.3278V5.55344H86.1246V8.93046H79.3278V10.4511H86.7175V14.2902H74.7573V0.300293Z" fill="#E62825"/>
<path d="M92.8193 0.201416H97.4291L103.291 14.2901H98.2419L97.5076 12.41H92.6387L91.9241 14.2901H86.957L92.8193 0.201416ZM96.3532 9.09226L95.081 5.69549L93.8088 9.09226H96.3532Z" fill="#E62825"/>
<path d="M105.631 4.25792H101.54V0.300293H114.376V4.25792H110.284V14.2902H105.635V4.25792H105.631Z" fill="#E62825"/>
<path d="M115.467 0.300293H120.116V14.2902H115.467V0.300293Z" fill="#E62825"/>
<path d="M120.729 0.300293H125.936L128.637 8.15236L131.338 0.300293H136.463L130.82 14.389H126.371L120.729 0.300293Z" fill="#E62825"/>
<path d="M137.04 0.300293H148.902V4.13548H141.611V5.55344H148.407V8.93046H141.611V10.4511H149V14.2902H137.04V0.300293Z" fill="#E62825"/>
<path d="M74.8867 17.3789H75.2087V17.7344H74.8867V17.3789ZM74.9181 18.4374H75.1773V21.1351H74.9181V18.4374Z" fill="black"/>
<path d="M76.1904 18.4375H76.4496V18.9391C76.6263 18.6231 76.9286 18.3743 77.4194 18.3743C78.0987 18.3743 78.4914 18.8403 78.4914 19.4841V21.1351H78.2322V19.5315C78.2322 18.9746 77.922 18.6113 77.3802 18.6113C76.854 18.6113 76.4496 19.0141 76.4496 19.575V21.1351H76.1904V18.4375Z" fill="black"/>
<path d="M79.5591 20.4439V18.6744H79.1704V18.4375H79.5591V17.5764H79.8183V18.4375H80.7607V18.6744H79.8183V20.4163C79.8183 20.8033 80.046 20.9416 80.3562 20.9416C80.4897 20.9416 80.5997 20.9139 80.7489 20.8468V21.0917C80.6114 21.1549 80.4819 21.1865 80.313 21.1865C79.8968 21.1865 79.5591 20.9574 79.5591 20.4439Z" fill="black"/>
<path d="M81.2632 19.7922V19.7804C81.2632 18.9983 81.809 18.3743 82.5354 18.3743C83.2853 18.3743 83.7683 18.9904 83.7683 19.7883C83.7683 19.8357 83.7683 19.8515 83.7644 19.8949H81.538C81.5852 20.5664 82.0642 20.9574 82.5903 20.9574C83.0066 20.9574 83.2893 20.7718 83.5091 20.5348L83.6898 20.6928C83.4149 20.989 83.0969 21.2023 82.5786 21.2023C81.8718 21.2023 81.2632 20.6375 81.2632 19.7922ZM83.4856 19.6619C83.4502 19.1168 83.1401 18.6152 82.5236 18.6152C81.9935 18.6152 81.5812 19.0655 81.5341 19.6619H83.4856Z" fill="black"/>
<path d="M84.4674 21.5814L84.6205 21.3721C84.9425 21.6209 85.3116 21.7513 85.7043 21.7513C86.3207 21.7513 86.7566 21.3958 86.7566 20.7046V20.3136C86.5249 20.6454 86.1676 20.9376 85.6375 20.9376C84.9896 20.9376 84.3496 20.44 84.3496 19.6658V19.654C84.3496 18.8759 84.9936 18.3743 85.6375 18.3743C86.1754 18.3743 86.5367 18.6586 86.7566 18.9786V18.4375H87.0157V20.7204C87.0157 21.1114 86.8901 21.4195 86.6741 21.6367C86.4424 21.8698 86.0969 21.9962 85.7003 21.9962C85.2527 21.9962 84.8365 21.8579 84.4674 21.5814ZM86.7723 19.6619V19.65C86.7723 19.026 86.2186 18.6231 85.6611 18.6231C85.0996 18.6231 84.6245 19.0141 84.6245 19.6461V19.6579C84.6245 20.2662 85.1074 20.6888 85.6611 20.6888C86.2186 20.6888 86.7723 20.2741 86.7723 19.6619Z" fill="black"/>
<path d="M87.9937 18.4373H88.2528V19.2036C88.4648 18.7217 88.9125 18.3741 89.4425 18.3939V18.6782H89.4151C88.7947 18.6782 88.2528 19.1483 88.2528 20.0291V21.135H87.9937V18.4373Z" fill="black"/>
<path d="M89.7485 20.3531V20.3413C89.7485 19.7804 90.2276 19.4644 90.9226 19.4644C91.2956 19.4644 91.5548 19.5118 91.81 19.579V19.4644C91.81 18.9194 91.4801 18.6389 90.9265 18.6389C90.6006 18.6389 90.3336 18.7298 90.0862 18.8562L89.992 18.6271C90.2865 18.4888 90.577 18.394 90.9461 18.394C91.3074 18.394 91.5979 18.4928 91.7943 18.6903C91.971 18.872 92.0691 19.1208 92.0691 19.4526V21.1352H91.8178V20.6849C91.6333 20.9456 91.3034 21.1984 90.793 21.1984C90.2825 21.2023 89.7485 20.914 89.7485 20.3531ZM91.8139 20.128V19.8199C91.5862 19.7606 91.2877 19.6975 90.9029 19.6975C90.3336 19.6975 90.0195 19.9502 90.0195 20.3294V20.3413C90.0195 20.7323 90.3886 20.9614 90.7969 20.9614C91.3466 20.9574 91.8139 20.6217 91.8139 20.128Z" fill="black"/>
<path d="M93.106 20.4439V18.6744H92.7173V18.4375H93.106V17.5764H93.3652V18.4375H94.3075V18.6744H93.3652V20.4163C93.3652 20.8033 93.5929 20.9416 93.9031 20.9416C94.0366 20.9416 94.1465 20.9139 94.2957 20.8468V21.0917C94.1583 21.1549 94.0287 21.1865 93.8599 21.1865C93.4437 21.1865 93.106 20.9574 93.106 20.4439Z" fill="black"/>
<path d="M94.8062 19.7922V19.7804C94.8062 18.9983 95.3519 18.3743 96.0783 18.3743C96.8322 18.3743 97.3113 18.9904 97.3113 19.7883C97.3113 19.8357 97.3113 19.8515 97.3074 19.8949H95.081C95.1281 20.5664 95.6072 20.9574 96.1333 20.9574C96.5495 20.9574 96.8322 20.7718 97.0521 20.5348L97.2327 20.6928C96.9579 20.989 96.6398 21.2023 96.1215 21.2023C95.4148 21.2023 94.8062 20.6375 94.8062 19.7922ZM97.0325 19.6619C96.9972 19.1168 96.687 18.6152 96.0705 18.6152C95.5404 18.6152 95.1281 19.0655 95.081 19.6619H97.0325Z" fill="black"/>
<path d="M97.8921 19.8V19.7882C97.8921 18.9114 98.5517 18.3742 99.1957 18.3742C99.7336 18.3742 100.079 18.6823 100.299 19.018V17.2722H100.558V21.1351H100.299V20.5307C100.067 20.8862 99.7258 21.1983 99.1957 21.1983C98.5478 21.2022 97.8921 20.6769 97.8921 19.8ZM100.315 19.7921V19.7803C100.315 19.0891 99.7768 18.623 99.2193 18.623C98.6342 18.623 98.1669 19.0496 98.1669 19.7763V19.7882C98.1669 20.4991 98.6578 20.9534 99.2193 20.9534C99.7807 20.9534 100.315 20.4833 100.315 19.7921Z" fill="black"/>
<path d="M103.119 18.4375H103.378V18.9193C103.551 18.6389 103.794 18.3743 104.273 18.3743C104.74 18.3743 105.031 18.6428 105.176 18.9549C105.349 18.6547 105.639 18.3743 106.146 18.3743C106.782 18.3743 107.179 18.8245 107.179 19.4999V21.1351H106.92V19.5315C106.92 18.9509 106.621 18.6113 106.126 18.6113C105.675 18.6113 105.278 18.9588 105.278 19.5631V21.1351H105.019V19.5157C105.019 18.9549 104.713 18.6113 104.234 18.6113C103.755 18.6113 103.378 19.0339 103.378 19.5789V21.1351H103.119V18.4375Z" fill="black"/>
<path d="M107.905 20.3531V20.3413C107.905 19.7804 108.384 19.4644 109.079 19.4644C109.452 19.4644 109.711 19.5118 109.966 19.579V19.4644C109.966 18.9194 109.636 18.6389 109.083 18.6389C108.757 18.6389 108.49 18.7298 108.242 18.8562L108.148 18.6271C108.443 18.4888 108.733 18.394 109.102 18.394C109.468 18.394 109.754 18.4928 109.951 18.6903C110.131 18.872 110.225 19.1208 110.225 19.4526V21.1352H109.974V20.6849C109.79 20.9456 109.46 21.1984 108.949 21.1984C108.439 21.2023 107.905 20.914 107.905 20.3531ZM109.97 20.128V19.8199C109.742 19.7606 109.444 19.6975 109.059 19.6975C108.49 19.6975 108.176 19.9502 108.176 20.3294V20.3413C108.176 20.7323 108.545 20.9614 108.953 20.9614C109.503 20.9574 109.97 20.6217 109.97 20.128Z" fill="black"/>
<path d="M111.148 18.4373H111.408V19.2036C111.62 18.7217 112.067 18.3741 112.597 18.3939V18.6782H112.57C111.949 18.6782 111.408 19.1483 111.408 20.0291V21.135H111.148V18.4373Z" fill="black"/>
<path d="M113.253 17.2761H113.512V20.1713L115.177 18.4413H115.519L114.345 19.6381L115.554 21.139H115.228L114.164 19.8197L113.512 20.4794V21.135H113.253V17.2761Z" fill="black"/>
<path d="M115.884 19.7922V19.7804C115.884 18.9983 116.43 18.3743 117.156 18.3743C117.91 18.3743 118.389 18.9904 118.389 19.7883C118.389 19.8357 118.389 19.8515 118.385 19.8949H116.159C116.206 20.5664 116.685 20.9574 117.211 20.9574C117.627 20.9574 117.91 20.7718 118.13 20.5348L118.31 20.6928C118.036 20.989 117.717 21.2023 117.199 21.2023C116.496 21.2023 115.884 20.6375 115.884 19.7922ZM118.11 19.6619C118.071 19.1168 117.765 18.6152 117.148 18.6152C116.618 18.6152 116.206 19.0655 116.159 19.6619H118.11Z" fill="black"/>
<path d="M119.284 20.4439V18.6744H118.895V18.4375H119.284V17.5764H119.539V18.4375H120.481V18.6744H119.539V20.4163C119.539 20.8033 119.767 20.9416 120.077 20.9416C120.21 20.9416 120.32 20.9139 120.473 20.8468V21.0917C120.336 21.1549 120.206 21.1865 120.038 21.1865C119.621 21.1865 119.284 20.9574 119.284 20.4439Z" fill="black"/>
<path d="M121.255 17.3789H121.577V17.7344H121.255V17.3789ZM121.286 18.4374H121.545V21.1351H121.286V18.4374Z" fill="black"/>
<path d="M122.559 18.4375H122.818V18.9391C122.998 18.6231 123.297 18.3743 123.788 18.3743C124.467 18.3743 124.86 18.8403 124.86 19.4841V21.1351H124.6V19.5315C124.6 18.9746 124.29 18.6113 123.748 18.6113C123.222 18.6113 122.818 19.0141 122.818 19.575V21.1351H122.559V18.4375Z" fill="black"/>
<path d="M125.735 21.5814L125.889 21.3721C126.211 21.6209 126.576 21.7513 126.972 21.7513C127.589 21.7513 128.025 21.3958 128.025 20.7046V20.3136C127.793 20.6454 127.436 20.9376 126.906 20.9376C126.258 20.9376 125.618 20.44 125.618 19.6658V19.654C125.618 18.8759 126.258 18.3743 126.906 18.3743C127.444 18.3743 127.805 18.6586 128.025 18.9786V18.4375H128.284V20.7204C128.284 21.1114 128.158 21.4195 127.942 21.6367C127.711 21.8698 127.365 21.9962 126.968 21.9962C126.517 21.9962 126.101 21.8579 125.735 21.5814ZM128.036 19.6619V19.65C128.036 19.026 127.483 18.6231 126.925 18.6231C126.364 18.6231 125.889 19.0141 125.889 19.6461V19.6579C125.889 20.2662 126.372 20.6888 126.925 20.6888C127.487 20.6888 128.036 20.2741 128.036 19.6619Z" fill="black"/>
<path d="M130.62 20.3531V20.3413C130.62 19.7804 131.099 19.4644 131.794 19.4644C132.167 19.4644 132.426 19.5118 132.682 19.579V19.4644C132.682 18.9194 132.352 18.6389 131.798 18.6389C131.472 18.6389 131.205 18.7298 130.958 18.8562L130.864 18.6271C131.158 18.4888 131.449 18.394 131.814 18.394C132.175 18.394 132.466 18.4928 132.662 18.6903C132.839 18.872 132.937 19.1208 132.937 19.4526V21.1352H132.685V20.6849C132.501 20.9456 132.171 21.1984 131.661 21.1984C131.154 21.2023 130.62 20.914 130.62 20.3531ZM132.685 20.128V19.8199C132.458 19.7606 132.159 19.6975 131.775 19.6975C131.205 19.6975 130.891 19.9502 130.891 20.3294V20.3413C130.891 20.7323 131.26 20.9614 131.668 20.9614C132.218 20.9574 132.685 20.6217 132.685 20.128Z" fill="black"/>
<path d="M133.808 21.5814L133.961 21.3721C134.283 21.6209 134.648 21.7513 135.045 21.7513C135.662 21.7513 136.097 21.3958 136.097 20.7046V20.3136C135.866 20.6454 135.508 20.9376 134.978 20.9376C134.33 20.9376 133.69 20.44 133.69 19.6658V19.654C133.69 18.8759 134.33 18.3743 134.978 18.3743C135.516 18.3743 135.877 18.6586 136.097 18.9786V18.4375H136.357V20.7204C136.357 21.1114 136.231 21.4195 136.015 21.6367C135.783 21.8698 135.438 21.9962 135.041 21.9962C134.594 21.9962 134.177 21.8579 133.808 21.5814ZM136.113 19.6619V19.65C136.113 19.026 135.559 18.6231 135.002 18.6231C134.44 18.6231 133.965 19.0141 133.965 19.6461V19.6579C133.965 20.2662 134.448 20.6888 135.002 20.6888C135.559 20.6888 136.113 20.2741 136.113 19.6619Z" fill="black"/>
<path d="M137.15 19.7922V19.7804C137.15 18.9983 137.696 18.3743 138.422 18.3743C139.176 18.3743 139.655 18.9904 139.655 19.7883C139.655 19.8357 139.655 19.8515 139.651 19.8949H137.425C137.472 20.5664 137.951 20.9574 138.477 20.9574C138.893 20.9574 139.176 20.7718 139.396 20.5348L139.576 20.6928C139.302 20.989 138.984 21.2023 138.465 21.2023C137.762 21.2023 137.15 20.6375 137.15 19.7922ZM139.376 19.6619C139.341 19.1168 139.031 18.6152 138.414 18.6152C137.884 18.6152 137.472 19.0655 137.425 19.6619H139.376Z" fill="black"/>
<path d="M140.409 18.4375H140.668V18.9391C140.848 18.6231 141.147 18.3743 141.638 18.3743C142.317 18.3743 142.71 18.8403 142.71 19.4841V21.1351H142.45V19.5315C142.45 18.9746 142.14 18.6113 141.598 18.6113C141.072 18.6113 140.668 19.0141 140.668 19.575V21.1351H140.409V18.4375Z" fill="black"/>
<path d="M143.452 19.8001V19.7883C143.452 19.0299 144.052 18.3743 144.818 18.3743C145.325 18.3743 145.639 18.6073 145.89 18.8719L145.705 19.0615C145.474 18.8245 145.211 18.6152 144.81 18.6152C144.202 18.6152 143.727 19.1287 143.727 19.7725V19.7843C143.727 20.436 144.217 20.9534 144.83 20.9534C145.207 20.9534 145.501 20.7599 145.729 20.5032L145.906 20.6612C145.631 20.9732 145.305 21.1944 144.81 21.1944C144.048 21.2023 143.452 20.5545 143.452 19.8001Z" fill="black"/>
<path d="M146.413 21.8856L146.503 21.6565C146.644 21.7236 146.762 21.7592 146.958 21.7592C147.237 21.7592 147.422 21.5933 147.622 21.1233L146.334 18.4414H146.632L147.748 20.8547L148.717 18.4414H149L147.838 21.2378C147.602 21.8026 147.327 22.0041 146.943 22.0041C146.738 22.0001 146.589 21.9646 146.413 21.8856Z" fill="black"/>
</svg>
