<svg width="23" height="24" viewBox="0 0 23 24" fill="none" xmlns="http://www.w3.org/2000/svg">
<path d="M17.7692 8.8999C17.7727 6.89184 17.0958 4.94182 15.8489 3.36778C14.602 1.79375 12.8586 0.688529 10.9031 0.232326C8.94749 -0.223877 6.89506 -0.00415792 5.08038 0.855661C3.26571 1.71548 1.79582 3.16468 0.910374 4.967C0.0249274 6.76931 -0.223852 8.81842 0.204595 10.7803C0.633043 12.7421 1.71345 14.5009 3.26966 15.77C4.82587 17.0391 6.7661 17.7435 8.77401 17.7685C10.7819 17.7935 12.7391 17.1376 14.3264 15.9076L20.6511 22.2324C21.0835 22.6648 21.7846 22.6648 22.217 22.2324C22.6495 21.7999 22.6495 21.0989 22.217 20.6664L15.8923 14.3417C17.1045 12.7863 17.7648 10.8719 17.7692 8.8999ZM8.88459 15.5634C7.56669 15.5634 6.27838 15.1725 5.18258 14.4404C4.08678 13.7082 3.23271 12.6675 2.72837 11.4499C2.22403 10.2323 2.09207 8.89251 2.34918 7.59993C2.60629 6.30735 3.24093 5.12003 4.17283 4.18813C5.10473 3.25623 6.29204 2.6216 7.58462 2.36449C8.8772 2.10738 10.217 2.23934 11.4346 2.74368C12.6522 3.24802 13.6929 4.10209 14.4251 5.19789C15.1572 6.29369 15.548 7.582 15.548 8.8999C15.548 10.6672 14.846 12.362 13.5964 13.6117C12.3467 14.8613 10.6519 15.5634 8.88459 15.5634Z" fill="#8A8A8A"/>
</svg>
