<svg width="93" height="93" viewBox="0 0 93 93" fill="none" xmlns="http://www.w3.org/2000/svg">
<path d="M87.6237 61.264C87.2728 61.1101 86.8948 61.0271 86.5117 61.0198C86.1285 61.0125 85.7477 61.0811 85.3912 61.2215C85.0346 61.362 84.7094 61.5716 84.4342 61.8382C84.1589 62.1049 83.9391 62.4234 83.7875 62.7753C79.7124 72.1979 72.1979 79.7124 62.7753 83.7875C62.1571 84.0508 61.6492 84.5201 61.3381 85.1157C61.027 85.7113 60.9319 86.3962 61.0689 87.0541C61.2059 87.7119 61.5667 88.3019 62.0898 88.7237C62.6128 89.1454 63.2659 89.3729 63.9378 89.3675C64.3361 89.3605 64.7299 89.2817 65.1003 89.135C75.8578 84.4435 84.4435 75.8578 89.135 65.1003C89.2889 64.7493 89.3719 64.3714 89.3792 63.9883C89.3865 63.6051 89.3179 63.2243 89.1775 62.8677C89.037 62.5112 88.8274 62.1859 88.5608 61.9107C88.2941 61.6355 87.9756 61.4157 87.6237 61.264Z" fill="#C42026"/>
<path d="M30.225 83.7872C20.8023 79.7121 13.2879 72.1977 9.21282 62.775C9.06016 62.4239 8.83983 62.1063 8.56442 61.8403C8.28901 61.5743 7.96391 61.3652 7.60769 61.2249C7.25146 61.0845 6.87108 61.0157 6.48826 61.0224C6.10545 61.0291 5.72769 61.1111 5.37657 61.2638C5.02545 61.4164 4.70783 61.6367 4.44186 61.9122C4.17589 62.1876 3.96676 62.5127 3.82643 62.8689C3.6861 63.2251 3.61731 63.6055 3.62398 63.9883C3.63065 64.3711 3.71266 64.7489 3.86532 65.1C8.55679 75.8575 17.1425 84.4432 27.9 89.1347C28.2704 89.2815 28.6642 89.3602 29.0625 89.3672C29.7344 89.3727 30.3875 89.1452 30.9105 88.7234C31.4336 88.3016 31.7943 87.7116 31.9314 87.0538C32.0684 86.396 31.9733 85.711 31.6622 85.1154C31.3511 84.5199 30.8432 84.0505 30.225 83.7872Z" fill="#C42026"/>
<path d="M5.37659 31.7363C5.74696 31.883 6.14077 31.9618 6.53909 31.9688C7.1063 31.9707 7.6617 31.8067 8.1368 31.4968C8.61191 31.187 8.98596 30.7449 9.21284 30.225C13.288 20.8023 20.8024 13.2879 30.225 9.21282C30.9342 8.90451 31.4918 8.32712 31.7752 7.60769C32.0586 6.88825 32.0446 6.08569 31.7363 5.37657C31.428 4.66745 30.8506 4.10985 30.1311 3.82643C29.4117 3.54302 28.6092 3.55701 27.9 3.86532C17.1425 8.55679 8.55681 17.1425 3.86534 27.9C3.71142 28.251 3.62842 28.6289 3.62113 29.012C3.61384 29.3952 3.6824 29.776 3.82286 30.1325C3.96332 30.4891 4.1729 30.8143 4.43956 31.0896C4.70621 31.3648 5.02467 31.5846 5.37659 31.7363Z" fill="#C42026"/>
<path d="M62.775 9.21282C72.1977 13.2879 79.7121 20.8023 83.7872 30.225C84.0141 30.7449 84.3881 31.187 84.8632 31.4968C85.3383 31.8067 85.8937 31.9707 86.4609 31.9688C86.8593 31.9618 87.2531 31.883 87.6234 31.7363C87.9754 31.5846 88.2938 31.3648 88.5605 31.0896C88.8271 30.8143 89.0367 30.4891 89.1772 30.1325C89.3176 29.776 89.3862 29.3952 89.3789 29.012C89.3716 28.6289 89.2886 28.251 89.1347 27.9C84.4432 17.1425 75.8575 8.55679 65.1 3.86532C64.3909 3.55701 63.5883 3.54302 62.8689 3.82643C62.1495 4.10985 61.5721 4.66745 61.2638 5.37657C60.9554 6.08569 60.9415 6.88825 61.2249 7.60769C61.5083 8.32712 62.0659 8.90451 62.775 9.21282Z" fill="#C42026"/>
<path d="M46.5 37.7812H52.3125C53.0833 37.7812 53.8225 37.4751 54.3675 36.93C54.9126 36.385 55.2188 35.6458 55.2188 34.875C55.2188 34.1042 54.9126 33.365 54.3675 32.82C53.8225 32.2749 53.0833 31.9688 52.3125 31.9688H49.4062C49.4062 31.198 49.1001 30.4587 48.555 29.9137C48.01 29.3687 47.2708 29.0625 46.5 29.0625C45.7292 29.0625 44.99 29.3687 44.445 29.9137C43.8999 30.4587 43.5938 31.198 43.5938 31.9688V32.4919C41.6716 33.1893 40.0558 34.5401 39.0287 36.3082C38.0016 38.0762 37.6286 40.149 37.9748 42.1642C38.3211 44.1794 39.3646 46.0088 40.9229 47.3326C42.4813 48.6564 44.4553 49.3904 46.5 49.4062C47.2708 49.4062 48.01 49.7124 48.555 50.2575C49.1001 50.8025 49.4062 51.5417 49.4062 52.3125C49.4062 53.0833 49.1001 53.8225 48.555 54.3675C48.01 54.9126 47.2708 55.2188 46.5 55.2188H40.6875C39.9167 55.2188 39.1775 55.5249 38.6325 56.07C38.0874 56.615 37.7812 57.3542 37.7812 58.125C37.7812 58.8958 38.0874 59.635 38.6325 60.18C39.1775 60.7251 39.9167 61.0312 40.6875 61.0312H43.5938C43.5938 61.802 43.8999 62.5413 44.445 63.0863C44.99 63.6313 45.7292 63.9375 46.5 63.9375C47.2708 63.9375 48.01 63.6313 48.555 63.0863C49.1001 62.5413 49.4062 61.802 49.4062 61.0312V60.5081C51.3284 59.8107 52.9442 58.4599 53.9713 56.6918C54.9984 54.9238 55.3714 52.851 55.0252 50.8358C54.6789 48.8206 53.6354 46.9912 52.0771 45.6674C50.5187 44.3436 48.5447 43.6096 46.5 43.5938C45.7292 43.5938 44.99 43.2876 44.445 42.7425C43.8999 42.1975 43.5938 41.4583 43.5938 40.6875C43.5938 39.9167 43.8999 39.1775 44.445 38.6325C44.99 38.0874 45.7292 37.7812 46.5 37.7812Z" fill="#6B1210"/>
<path d="M90.0938 43.5938H81.375C80.6785 35.3624 77.0828 27.6456 71.2283 21.8177C65.3738 15.9898 57.6406 12.4293 49.4062 11.7703V2.90625C49.4062 2.13546 49.1001 1.39625 48.555 0.851221C48.01 0.306193 47.2708 0 46.5 0C45.7292 0 44.99 0.306193 44.445 0.851221C43.8999 1.39625 43.5938 2.13546 43.5938 2.90625V11.7703C35.3853 12.462 27.6866 16.037 21.8618 21.8618C16.037 27.6866 12.462 35.3853 11.7703 43.5938H2.90625C2.13546 43.5938 1.39625 43.8999 0.851221 44.445C0.306193 44.99 0 45.7292 0 46.5C0 47.2708 0.306193 48.01 0.851221 48.555C1.39625 49.1001 2.13546 49.4062 2.90625 49.4062H11.7703C12.4293 57.6406 15.9898 65.3738 21.8177 71.2283C27.6456 77.0828 35.3624 80.6785 43.5938 81.375V90.0938C43.5938 90.8645 43.8999 91.6038 44.445 92.1488C44.99 92.6938 45.7292 93 46.5 93C47.2708 93 48.01 92.6938 48.555 92.1488C49.1001 91.6038 49.4062 90.8645 49.4062 90.0938V81.375C57.6635 80.7113 65.4149 77.13 71.2725 71.2725C77.13 65.4149 80.7113 57.6635 81.375 49.4062H90.0938C90.8645 49.4062 91.6038 49.1001 92.1488 48.555C92.6938 48.01 93 47.2708 93 46.5C93 45.7292 92.6938 44.99 92.1488 44.445C91.6038 43.8999 90.8645 43.5938 90.0938 43.5938ZM49.4062 75.5625V72.6562C49.4062 71.8855 49.1001 71.1462 48.555 70.6012C48.01 70.0562 47.2708 69.75 46.5 69.75C45.7292 69.75 44.99 70.0562 44.445 70.6012C43.8999 71.1462 43.5938 71.8855 43.5938 72.6562V75.5625C36.901 74.8866 30.6499 71.9099 25.9066 67.1401C21.1633 62.3702 18.2215 56.1027 17.5828 49.4062H20.3438C21.1145 49.4062 21.8538 49.1001 22.3988 48.555C22.9438 48.01 23.25 47.2708 23.25 46.5C23.25 45.7292 22.9438 44.99 22.3988 44.445C21.8538 43.8999 21.1145 43.5938 20.3438 43.5938H17.4375C18.1134 36.901 21.0901 30.6499 25.8599 25.9066C30.6298 21.1633 36.8973 18.2215 43.5938 17.5828V20.3438C43.5938 21.1145 43.8999 21.8538 44.445 22.3988C44.99 22.9438 45.7292 23.25 46.5 23.25C47.2708 23.25 48.01 22.9438 48.555 22.3988C49.1001 21.8538 49.4062 21.1145 49.4062 20.3438V17.4375C56.1251 18.0817 62.4102 21.0443 67.1829 25.8171C71.9557 30.5898 74.9183 36.8749 75.5625 43.5938H72.6562C71.8855 43.5938 71.1462 43.8999 70.6012 44.445C70.0562 44.99 69.75 45.7292 69.75 46.5C69.75 47.2708 70.0562 48.01 70.6012 48.555C71.1462 49.1001 71.8855 49.4062 72.6562 49.4062H75.5625C74.9183 56.1251 71.9557 62.4102 67.1829 67.1829C62.4102 71.9557 56.1251 74.9183 49.4062 75.5625Z" fill="#C42026"/>
</svg>
